<svg xmlns="http://www.w3.org/2000/svg" width="500" height="500" viewBox="0 0 500 500" version="1.1"><path d="M 360 3.183 C 351.577 6.167, 340.656 9.915, 286.507 28.411 C 258.185 38.085, 255.270 39.417, 251.562 44.386 C 248.576 48.387, 248.350 147.053, 251.295 161 C 262.201 212.657, 301.518 257.789, 362 288.079 C 377.246 295.714, 392.904 289.699, 429.846 262.018 C 486.669 219.440, 499.976 188.765, 499.991 100.327 C 500.002 35.251, 501.878 41.475, 480 34.009 C 474.775 32.226, 455.425 25.599, 437 19.282 C 418.575 12.965, 398.346 6.043, 392.047 3.899 C 377.699 -0.986, 372.120 -1.110, 360 3.183 M 392.500 46.604 C 377.233 50.306, 358.962 66.731, 359.003 76.718 C 359.009 78.235, 394.141 78.105, 403.019 76.555 C 412.285 74.938, 413.628 75.107, 409.299 77.346 C 403.718 80.232, 393.555 82.143, 381.090 82.651 C 364.765 83.317, 365.270 83.079, 368.914 88.375 C 385.407 112.346, 419.631 106.602, 439.658 76.500 C 445.915 67.096, 450.713 53.060, 447.160 54.553 C 439.313 57.851, 430.748 57, 419 51.754 C 409.014 47.295, 398.266 45.206, 392.500 46.604 M 326.586 62.508 C 321.665 67.069, 323.079 71.516, 331.198 77.013 C 349.097 89.129, 359.450 103.458, 366.037 125.231 C 370.804 140.989, 370.886 141.152, 373.893 140.803 C 376.284 140.525, 376.525 140.068, 376.801 135.299 C 378.242 110.355, 354.198 67.601, 335.101 61.148 C 330.369 59.550, 329.655 59.664, 326.586 62.508 M 400.039 118.189 C 396.050 122.470, 398.029 126.133, 407.631 132.243 C 439.592 152.578, 438.007 200.799, 404.767 219.388 C 351.169 249.362, 294.099 193.692, 325.475 142.041 C 332.641 130.244, 325.415 128.523, 317.799 140.213 C 285.516 189.766, 330.399 252.297, 389.380 239.936 C 434.461 230.487, 458.486 183.793, 438.699 144.080 C 430.092 126.808, 406.641 111.102, 400.039 118.189 M 345.863 125.010 C 327.346 134.794, 315.229 165.699, 321.951 186 C 336.721 230.606, 400.450 236.214, 421.600 194.769 C 429.827 178.649, 428.397 157.667, 419.072 157.667 C 413.552 157.667, 412.560 159.720, 412 172.305 C 410.875 197.597, 395.490 211.854, 370.399 210.856 C 331.959 209.327, 317.287 163.174, 346.643 136.124 C 354.168 129.190, 356.094 125.017, 352.418 123.607 C 350.247 122.774, 349.992 122.828, 345.863 125.010 M 386.920 143.411 C 377.467 150.349, 375.101 150.925, 364.798 148.797 C 351.434 146.037, 354.455 158.189, 368.463 163.539 C 386.758 170.526, 412.548 149.808, 396.316 141.163 C 393.087 139.443, 391.958 139.713, 386.920 143.411" stroke="none" fill="#4db153" fill-rule="evenodd"/><path d="M 149 105.091 C 140.502 106.324, 122.315 109.851, 118.500 111.006 C 81.324 122.261, 54.122 136.654, 28.235 158.771 C 16.993 168.375, 17.349 181.815, 29.004 187.814 C 36.730 191.792, 42.806 189.959, 53.500 180.426 C 88.713 149.038, 150.092 130.960, 199 137.573 C 220.431 140.471, 220.391 140.470, 224.957 137.904 C 235.513 131.971, 236.496 118.003, 226.869 110.742 C 219.915 105.497, 170.781 101.931, 149 105.091 M 155.500 152.105 C 93.008 159.716, 38.168 191.710, 4.134 240.416 C -13.052 265.010, 15.192 280.390, 33.223 256.255 C 74.231 201.361, 143.252 174.425, 210.775 186.965 C 231.296 190.776, 242.579 180.431, 234.750 164.985 C 229.369 154.368, 189.769 147.932, 155.500 152.105 M 166 199.037 C 32.491 208.804, -36.921 368.448, 48.124 470.143 C 62.717 487.592, 87.698 469.827, 74.537 451.359 C 51.740 419.372, 44.550 398.640, 44.587 365 C 44.697 265.361, 145.245 202.363, 235.336 245.487 C 251.553 253.249, 266.169 244.328, 262.119 229.140 C 258.716 216.377, 225.070 202.079, 192.500 199.554 C 188.100 199.213, 182.700 198.784, 180.500 198.601 C 178.300 198.419, 171.775 198.615, 166 199.037 M 159.500 247.470 C 84.708 260.481, 41.982 331.550, 65.548 403.745 C 71.393 421.648, 95.047 462.574, 105 472 C 105.290 472.275, 107.512 474.975, 109.938 478 C 126.685 498.884, 136.482 504.192, 146.663 497.899 C 157.428 491.246, 156.481 480.804, 143.845 466.849 C 99.456 417.827, 83.582 376.507, 95.112 340 C 123.597 249.807, 252.572 263.970, 262.101 358.338 C 263.732 374.482, 266.880 379.949, 275.479 381.562 C 307.526 387.574, 298.550 321.362, 262.076 282.698 C 236.436 255.518, 195.013 241.291, 159.500 247.470 M 296.848 277.018 C 287.244 282.092, 286.529 290.767, 294.408 306.620 C 321.611 361.352, 310.184 412.799, 272.785 403.969 C 256.203 400.053, 249.160 389.281, 247.963 366 C 243.321 275.724, 122.564 267.678, 106.977 356.606 C 101.305 388.966, 117.050 427.651, 149.399 460.836 C 173.374 485.428, 197.956 500.007, 215.432 499.996 C 236.897 499.983, 238.376 471.994, 217.122 468.011 C 180.615 461.169, 133.827 398.534, 139.105 363.569 C 147.135 310.379, 211.746 315.359, 215.165 369.432 C 221.038 462.332, 341.554 460.489, 341.485 367.500 C 341.445 312.489, 318.344 265.661, 296.848 277.018 M 171.728 341.952 C 147.372 346.734, 161.283 407.674, 194.812 443.079 C 225.957 475.966, 271.817 487.963, 278.040 464.851 C 280.977 453.945, 272.347 444.029, 259.884 443.989 C 230.255 443.894, 195.840 401.559, 192.420 361 C 191.165 346.126, 184.011 339.540, 171.728 341.952" stroke="none" fill="#2495f2" fill-rule="evenodd"/></svg>